<svg xmlns="http://www.w3.org/2000/svg" viewBox="0 0 73 73"><defs><style>.cls-1{fill:none;stroke:#fff;stroke-miterlimit:10;stroke-width:5px;}.cls-2{fill:#fff;}</style></defs><title>icon-linkedin</title><g id="Calque_2" data-name="Calque 2"><g id="Calque_1-2" data-name="Calque 1"><circle class="cls-1" cx="36.5" cy="36.5" r="34"/><path class="cls-2" d="M23.44,20.51a2.44,2.44,0,0,1-1.75-.7A2.39,2.39,0,0,1,21,18a2.46,2.46,0,0,1,2.48-2.5,2.5,2.5,0,0,1,1.79.71A2.39,2.39,0,0,1,26,18a2.35,2.35,0,0,1-.73,1.75A2.44,2.44,0,0,1,23.44,20.51Zm1.87,30H21.48V26.58h3.83Z"/><path class="cls-2" d="M52.92,50.5H49.09V36.86q0-7.62-5.56-7.62a6,6,0,0,0-4.75,2.16,8,8,0,0,0-1.88,5.46V50.5H33.06V26.58H36.9v4H37A8.62,8.62,0,0,1,44.84,26a7.32,7.32,0,0,1,6,2.53c1.39,1.69,2.08,4.14,2.08,7.33Z"/></g></g></svg>