<svg xmlns="http://www.w3.org/2000/svg" viewBox="0 0 512 512"><defs><style>.cls-1{fill:#fff;}</style></defs><title>icon-behance</title><g id="Calque_2" data-name="Calque 2"><g id="Capa_1" data-name="Capa 1"><path class="cls-1" d="M256,0C114.61,0,0,114.61,0,256S114.61,512,256,512,512,397.39,512,256,397.39,0,256,0Zm0,472C136.7,472,40,375.3,40,256S136.7,40,256,40s216,96.7,216,216S375.3,472,256,472Z"/><path class="cls-1" d="M242.53,192.66c4.72,6.59,7.1,14.54,7.1,23.79,0,9.52-2.41,17.21-7.16,23a36.87,36.87,0,0,1-11.75,8.86c7.86,2.92,13.8,7.49,17.81,13.77s6,13.92,6,22.89a45.84,45.84,0,0,1-6.87,24.86,43.44,43.44,0,0,1-10.91,12.34A42.66,42.66,0,0,1,219.33,330a108.16,108.16,0,0,1-21.8,2.08H128V176h74.58Q230.78,176.41,242.53,192.66Zm-83.75,10.48v34.38h37.5c6.69,0,12.11-1.28,16.33-3.85s6.25-7.17,6.25-13.72c0-7.29-2.77-12-8.28-14.4-4.75-1.63-10.86-2.41-18.24-2.41Zm0,60.27V305h37.44c6.69,0,11.91-1,15.62-2.76,6.79-3.41,10.16-9.91,10.16-19.49,0-8.14-3.28-13.7-9.84-16.73-3.66-1.69-8.78-2.56-15.41-2.59Z"/><path class="cls-1" d="M354.16,219a46.88,46.88,0,0,1,19.75,17.08A58.35,58.35,0,0,1,383,260q1.17,7.92,1,22.86H300.88c.46,11.63,4.46,19.72,12,24.39a30,30,0,0,0,16.41,4.33c6.8,0,12.33-1.76,16.55-5.3A24.9,24.9,0,0,0,352,298.3h30.44q-1.2,10.21-11.07,20.89C361.13,330.36,346.81,336,328.42,336a61.75,61.75,0,0,1-40.17-14.2c-11.59-9.49-17.37-24.86-17.37-46.22q0-30,15.71-46t40.77-16A64.85,64.85,0,0,1,354.16,219Zm-44.6,26.08c-4.22,4.42-6.84,10.36-7.94,17.91H353c-.55-8-3.2-14.14-8-18.27s-10.62-6.22-17.65-6.22C319.72,238.48,313.77,240.7,309.56,245.06Z"/><rect class="cls-1" x="288" y="192" width="80" height="16"/></g></g></svg>