<svg xmlns="http://www.w3.org/2000/svg" width="199.376" height="173.056" viewBox="0 0 199.376 173.056"><g transform="translate(99.688 86.528)"><g transform="translate(-99.688 -86.528)"><path d="M50.1,0,0,86.21l49.59,86.464,99.688.381,50.1-86.21L149.787.381Z" fill="#304d4f"/><path d="M142.328,162.69l-89.9-.254L7.8,84.491,52.939,6.8l89.9.254L187.468,85Z" transform="translate(2.118 1.846)" fill="#fff"/></g></g><path d="M0,32v70.3H70.3V32ZM38.259,86.83c0,6.842-4.017,9.965-9.871,9.965-5.288,0-8.349-2.731-9.918-6.042l5.383-3.248c1.036,1.836,1.977,3.39,4.253,3.39,2.166,0,3.547-.847,3.547-4.159V64.28h6.607ZM53.889,96.8c-6.136,0-10.106-2.919-12.036-6.748l5.383-3.107c1.412,2.307,3.264,4.017,6.512,4.017,2.731,0,4.488-1.365,4.488-3.264,0-2.26-1.789-3.06-4.818-4.394l-1.648-.706c-4.771-2.024-7.925-4.582-7.925-9.965,0-4.959,3.782-8.725,9.667-8.725,4.206,0,7.219,1.459,9.384,5.288l-5.147,3.3c-1.13-2.024-2.354-2.825-4.253-2.825a2.868,2.868,0,0,0-3.154,2.825c0,1.977,1.224,2.778,4.064,4.017l1.648.706c5.618,2.4,8.772,4.865,8.772,10.389,0,5.932-4.676,9.2-10.938,9.2Z" transform="translate(64.116 19.337)" fill="#304d4f"/></svg>