<svg xmlns="http://www.w3.org/2000/svg" xmlns:xlink="http://www.w3.org/1999/xlink" width="199.376" height="173.056" viewBox="0 0 199.376 173.056"><defs><clipPath id="a"><rect width="112.294" height="84.701" fill="none"/></clipPath></defs><g transform="translate(99.688 86.528)"><g transform="translate(-99.688 -86.528)"><path d="M50.1,0,0,86.21l49.59,86.464,99.688.381,50.1-86.21L149.787.381Z" fill="#304d4f"/><path d="M142.328,162.69l-89.9-.254L7.8,84.491,52.939,6.8l89.9.254L187.468,85Z" transform="translate(2.118 1.846)" fill="#fff"/></g></g><g transform="translate(100.607 86.324)"><g transform="translate(-56.147 -42.351)" clip-path="url(#a)"><path d="M135.558,57.128,108.882,83.8a1.49,1.49,0,0,1-2.086,0l-1.341-1.341a1.49,1.49,0,0,1,0-2.086L132.131,53.7Z" transform="translate(-26.766 -13.685)" fill="#304d4f"/><path d="M108.882,13.054l26.676,26.676-3.5,3.5-26.6-26.751a1.49,1.49,0,0,1,0-2.086l1.341-1.341a1.49,1.49,0,0,1,2.086,0" transform="translate(-26.766 -3.218)" fill="#304d4f"/><rect width="4.918" height="4.903" transform="translate(105.343 39.987) rotate(-45)" fill="#304d4f"/><path d="M4.7,57.1,31.3,83.779a1.49,1.49,0,0,0,2.086,0l1.341-1.341a1.49,1.49,0,0,0,0-2.086L8.128,53.6Z" transform="translate(-1.198 -13.66)" fill="#304d4f"/><path d="M31.3,13.054,4.7,39.731l3.428,3.5L34.8,16.482a1.49,1.49,0,0,0,0-2.086l-1.341-1.341a1.49,1.49,0,0,0-2.086,0" transform="translate(-1.198 -3.218)" fill="#304d4f"/><rect width="4.918" height="4.903" transform="translate(0.043 39.923) rotate(-45)" fill="#304d4f"/><path d="M82.925.305,82.254.156a2.981,2.981,0,0,0-3.726,2.012L55.056,80.707a2.981,2.981,0,0,0,2.012,3.726l.671.224a2.981,2.981,0,0,0,3.726-2.012l23.4-78.613A2.981,2.981,0,0,0,82.85.305" transform="translate(-13.998 -0.007)" fill="#304d4f"/></g></g></svg>