<svg xmlns="http://www.w3.org/2000/svg" xmlns:xlink="http://www.w3.org/1999/xlink" width="74" height="74" viewBox="0 0 74 74"><defs><clipPath id="a"><rect width="74" height="74" fill="none"/></clipPath></defs><g transform="translate(37 37)"><g transform="translate(-37 -37)" clip-path="url(#a)"><path d="M37,0A37,37,0,1,0,74,37,37,37,0,0,0,37,0M67.9,40a30.3,30.3,0,0,1-8.2,18.2A30,30,0,0,1,50.6,65l-4,1.7h-.7a2,2,0,0,1-1.1-2.1V56.8a9.7,9.7,0,0,0-.7-4.1,6.5,6.5,0,0,0-1.3-1.9H43a22.1,22.1,0,0,0,6.5-1.7,11.3,11.3,0,0,0,6.3-6.7,20.6,20.6,0,0,0,1-7.5,11,11,0,0,0-2.3-6.6,2.1,2.1,0,0,1-.5-2.2,10.5,10.5,0,0,0-.6-6.8A.4.4,0,0,0,53,19a4.5,4.5,0,0,0-2.1.2A21.9,21.9,0,0,0,45.3,22a1.1,1.1,0,0,1-1,.2L41,21.5a28.9,28.9,0,0,0-11.2.7A.9.9,0,0,1,29,22a22.5,22.5,0,0,0-5.2-2.6L22,19c-1.1-.1-1.2-.1-1.5,1a10.3,10.3,0,0,0-.1,6.9.5.5,0,0,1-.1.6,11.2,11.2,0,0,0-2.8,6.2,19.3,19.3,0,0,0,.3,6.4A12.9,12.9,0,0,0,20.4,46a13.8,13.8,0,0,0,7.8,4.3l3.2.5a6.5,6.5,0,0,0-1.9,3.8c0,.2,0,.3-.2.4a8.3,8.3,0,0,1-4.8.6,5.6,5.6,0,0,1-3.8-2.9,7.5,7.5,0,0,0-3.1-3,3.9,3.9,0,0,0-2.8-.5c-.5.1-.6.3-.3.8a3.2,3.2,0,0,0,1.1,1.1A5,5,0,0,1,17,52.4a12.7,12.7,0,0,1,2,3.5,5.5,5.5,0,0,0,4.2,3.4,13.8,13.8,0,0,0,5.7.1c.4-.1.5,0,.5.4v4.8a1.8,1.8,0,0,1-1.3,2.1h-.8c-.1-.2-.3-.2-.5-.3a29.9,29.9,0,0,1-6.1-2.9A31.3,31.3,0,0,1,10.1,52.3,29.4,29.4,0,0,1,6.3,40.7a1.486,1.486,0,0,0-.2-.9V34.7c.2-.1.1-.3.1-.4a29.1,29.1,0,0,1,.9-5.2A30.7,30.7,0,0,1,19.1,12a30.1,30.1,0,0,1,18-5.8,30.1,30.1,0,0,1,15,3.9A30.8,30.8,0,0,1,62.8,20a30.2,30.2,0,0,1,5,14.5c0,.1,0,.2.1.2v4.9c-.2.1-.1.2-.1.3" fill="#fff"/></g></g></svg>