<svg xmlns="http://www.w3.org/2000/svg" xmlns:xlink="http://www.w3.org/1999/xlink" width="73" height="73" viewBox="0 0 73 73"><defs><clipPath id="a"><rect width="73" height="73" fill="none"/></clipPath></defs><g transform="translate(36.5 36.5)"><g transform="translate(-36.5 -36.5)" clip-path="url(#a)"><path d="M16.9,52.2h.2c5.1,3.4,11.7,3.7,17.7,2.4A22.3,22.3,0,0,0,40,53.1,22.8,22.8,0,0,0,44.6,50c3.7-3.1,6.9-7,8.3-11.7a26.1,26.1,0,0,0,.9-6.6,4,4,0,0,1,.2-1.5,3.9,3.9,0,0,1,.8-1l3.3-3.6a.7.7,0,0,0,.2-.5c0-.4-.6-.4-1-.4l-2.8.6,2.1-3L57,22a.6.6,0,0,0-.5-.6,1.5,1.5,0,0,0-.8.2c-1.3.6-2.6,1.5-4,1.3a7.3,7.3,0,0,1-2.2-1,9.7,9.7,0,0,0-9.6.3,8.6,8.6,0,0,0-3.8,8.6,16.9,16.9,0,0,1-9.4-2.5,50,50,0,0,1-7.8-5.9,8.1,8.1,0,0,0-1.6,5.8,7.9,7.9,0,0,0,.9,2.7c.2.4,1.3,2.3,1.8,2.2a5.1,5.1,0,0,1-2.7-.3,9.1,9.1,0,0,0,5.3,8.5,6.5,6.5,0,0,1-2.3.2,8.2,8.2,0,0,0,7,6.4,13.7,13.7,0,0,1-10,3,1,1,0,0,0-.7.1c-.4.3-.1.9.3,1.2" fill="#fff"/><circle cx="34" cy="34" r="34" transform="translate(2.5 2.5)" fill="none" stroke="#fff" stroke-miterlimit="10" stroke-width="5"/></g></g></svg>