<svg xmlns="http://www.w3.org/2000/svg" width="199.376" height="173.056" viewBox="0 0 199.376 173.056"><g transform="translate(99.688 86.528)"><g transform="translate(-99.688 -86.528)"><path d="M50.1,0,0,86.21l49.59,86.464,99.688.381,50.1-86.21L149.787.381Z" fill="#304d4f"/><path d="M142.328,162.69l-89.9-.254L7.8,84.491,52.939,6.8l89.9.254L187.468,85Z" transform="translate(2.118 1.846)" fill="#fff"/></g></g><path d="M0,32l7.045,79.9,31.611,10.537L70.469,111.9,77.514,32ZM62.213,57.818h-37.1l.828,9.972H61.386L58.64,97.746,38.878,103.2v.061h-.222L18.733,97.746l-1.211-15.3H27.15l.707,7.691,10.8,2.927L49.5,90.136,50.707,77.58H17.017L14.433,48.189H63.1Z" transform="translate(61.268 9.055)" fill="#304d4f"/></svg>