<svg xmlns="http://www.w3.org/2000/svg" xmlns:xlink="http://www.w3.org/1999/xlink" width="199.376" height="173.056" viewBox="0 0 199.376 173.056"><defs><clipPath id="a"><rect width="91.661" height="111.825" fill="none"/></clipPath></defs><g transform="translate(0)"><g transform="translate(99.688 86.528)"><g transform="translate(-99.688 -86.528)"><path d="M50.1,0,0,86.21l49.59,86.464,99.688.381,50.1-86.21L149.787.381Z" fill="#304d4f"/><path d="M142.328,162.69l-89.9-.254L7.8,84.491,52.939,6.8l89.9.254L187.468,85Z" transform="translate(2.118 1.846)" fill="#fff"/></g></g><g transform="translate(99.067 86.666)"><g transform="translate(-45.831 -55.913)" clip-path="url(#a)"><path d="M99.543,7c-5.427,7.538-10.93,15-16.734,22.237L49.265,71.152c-1.206,1.508-1.96,1.583-3.317.226-3.844-4.07-7.839-7.99-11.835-11.91-1.206-1.206-1.131-1.96,0-3.091C52.356,38.286,70.371,19.969,89.065,2.33L91.4.22h1.357c2.261,0,5.277-.754,6.558.377s.226,4.146.226,6.407" transform="translate(-8.183 0.007)" fill="#304d4f"/><path d="M0,107.655C1.131,102,2.94,96.725,6.633,92.127a36.9,36.9,0,0,1,12.814-9.95,2.186,2.186,0,0,1,2.94.452L34.976,95.218c.678.678,1.206,1.281.9,2.337-1.658,5.729-4,11.005-8.97,14.7a14.171,14.171,0,0,1-8.744,3.166C6.784,115.269,3.392,122.882,4,131.324V132H3.618C1.583,127.857.98,123.334,0,118.887Z" transform="translate(0 -20.14)" fill="#304d4f"/></g></g></g></svg>