<svg xmlns="http://www.w3.org/2000/svg" xmlns:xlink="http://www.w3.org/1999/xlink" width="199.376" height="173.056" viewBox="0 0 199.376 173.056"><defs><clipPath id="a"><rect width="100.344" height="84.12" fill="none"/></clipPath></defs><g transform="translate(0)"><g transform="translate(99.688 86.528)"><g transform="translate(-99.688 -86.528)"><path d="M50.1,0,0,86.21l49.59,86.464,99.688.381,50.1-86.21L149.787.381Z" fill="#304d4f"/><path d="M142.328,162.69l-89.9-.254L7.8,84.491,52.939,6.8l89.9.254L187.468,85Z" transform="translate(2.118 1.846)" fill="#fff"/></g></g><g transform="translate(100.713 86.033)"><g transform="translate(-50.172 -42.06)" clip-path="url(#a)"><path d="M50.209,0H91.864c5.653,0,8.331,2.455,8.405,8.182q.149,25.737,0,51.4c0,5.43-2.827,8.108-8.257,8.182H76.318c-1.86,0-2.827-.669-2.752-2.678s.074-6.323,0-9.447c-.074-2.008.744-2.752,2.678-2.678,5.43.074,10.86-.074,16.216.074,2.157.074,2.752-.744,2.752-2.827q-.074-20.827,0-41.655c0-2.529-.818-3.57-3.422-3.57H8.554c-2.6.074-3.57.893-3.57,3.5.074,13.91,0,27.745.074,41.655,0,1.339-.149,2.752,1.86,2.975s1.339,1.339,1.339,2.306V65.458c0,1.934-.893,2.529-2.752,2.157C2.083,66.871,0,64.193,0,59.953V8.033C.074,2.678,2.678,0,8.033,0H50.209" fill="#304d4f"/><path d="M80.7,61.023V85.346c0,5.356-1.265,6.546-6.546,6.546H50.13c-2.083,0-3.273-.3-1.934-2.678a5.728,5.728,0,0,0,.446-3.422c-.3-2.678.893-3.347,3.422-3.347,6.918.149,13.91,0,20.827.074,2.008,0,2.9-.521,2.827-2.752q-.149-20.679,0-41.357c0-2.083-.669-2.827-2.827-2.827H41.5c-2.157,0-3.273.669-3.05,2.9.074.818,0,1.636,0,2.455a2.751,2.751,0,0,1-2.678,2.232c-1.562,0-2.38-.521-2.38-2.232s-.074-4.314.074-6.471A3.859,3.859,0,0,1,37.41,30.6H76.685c2.827,0,4.017,1.636,4.017,5.281.074,8.405,0,16.811,0,25.142" transform="translate(-8.549 -7.839)" fill="#304d4f"/><path d="M13.1,72.782V55.228c0-4.091,1.636-5.728,5.8-5.728H36.159c3.942,0,5.728,1.636,5.728,5.579q.149,17.852,0,35.7c0,4.314-1.86,5.951-6.248,6.025H19.423c-4.686-.074-6.323-1.711-6.323-6.4V72.856M36.9,70.7c0-4.537-.074-9,0-13.538,0-1.86-.669-2.6-2.529-2.529H20.613c-1.711,0-2.455.6-2.455,2.38q.074,13.538,0,27.076c0,1.785.744,2.38,2.455,2.38,4.612-.074,9.224-.074,13.761,0,2.083.074,2.6-.818,2.529-2.752-.074-4.314,0-8.629,0-12.943" transform="translate(-3.356 -12.68)" fill="#304d4f"/><path d="M103.9,108.984h-.6c-4.24,0-5.876-2.38-4.389-6.546a1.785,1.785,0,0,1,.818-.967.967.967,0,0,1,1.339.669c1.116,2.827,3.645,3.5,6.174,4.165.744.223,1.711.446,1.636,1.488s-1.19,1.116-2.083,1.116h-2.975Z" transform="translate(-25.2 -25.971)" fill="#304d4f"/></g></g></g></svg>