<svg xmlns="http://www.w3.org/2000/svg" width="199.376" height="173.056" viewBox="0 0 199.376 173.056"><g transform="translate(99.688 86.528)"><g transform="translate(-99.688 -86.528)"><path d="M50.1,0,0,86.21l49.59,86.464,99.688.381,50.1-86.21L149.787.381Z" fill="#304d4f"/><path d="M142.328,162.69l-89.9-.254L7.8,84.491,52.939,6.8l89.9.254L187.468,85Z" transform="translate(2.118 1.846)" fill="#fff"/></g></g><path d="M0,32l7.018,79.594,31.592,10.5,31.592-10.5L77.221,32ZM62.963,48.088,62,57.6,38.812,67.514l-.06.02H61.174L58.6,97.015l-19.748,5.771L18.984,96.914,17.7,82.053H27.53l.644,7.7L38.751,92.43l11-3.1L50.5,76.945l-33.442-.1v-.02l-.04.02-.724-9.311,22.543-9.391,1.307-.543H15.424l-1.166-9.512Z" transform="translate(66.268 9.398)" fill="#304d4f"/></svg>